<?xml version="1.0" encoding="UTF-8" standalone="no"?>
<svg
   xmlns:dc="http://purl.org/dc/elements/1.1/"
   xmlns:cc="http://creativecommons.org/ns#"
   xmlns:rdf="http://www.w3.org/1999/02/22-rdf-syntax-ns#"
   xmlns:svg="http://www.w3.org/2000/svg"
   xmlns="http://www.w3.org/2000/svg"
   viewBox="0 0 395.62497 480.18686"
   height="480.18686"
   width="395.62497"
   version="1.1"
   id="svg4230">
  <metadata
     id="metadata4236">
    <rdf:RDF>
      <cc:Work
         rdf:about="">
        <dc:format>image/svg+xml</dc:format>
        <dc:type
           rdf:resource="http://purl.org/dc/dcmitype/StillImage" />
        <dc:title></dc:title>
      </cc:Work>
    </rdf:RDF>
  </metadata>
  <defs
     id="defs4234" />
  <path
     id="path4780"
     d="M 43.8539,478.71175 C 23.54905,474.29972 8.04681,459.7981 1.7207,439.29814 0.07499,433.96516 0,425.28514 0,240.1284 0,54.97167 0.075,46.291648 1.7207,40.958668 8.11301,20.244178 23.60033,5.8876493 44.28182,1.5051203 c 9.47037,-2.00682705 270.40349,-2.00682705 279.87386,0 20.45263,4.334033 35.63757,18.2455297 42.49993,38.9357857 1.55698,4.694353 1.73891,9.889039 2.03086,57.989365 l 0.32068,52.833129 -13.87857,-12.00553 c -7.63322,-6.60304 -15.77702,-13.71358 -18.09733,-15.80118 l -4.21875,-3.79566 -0.46875,-34.688186 c -0.51954,-38.446981 -0.38976,-37.637375 -6.95773,-43.40413 -1.81693,-1.595289 -4.89708,-3.34306 -6.84477,-3.883938 -4.93275,-1.369837 -263.71225,-1.369837 -268.645,0 -4.13683,1.148806 -9.47514,5.555565 -11.74101,9.692171 -1.48384,2.708892 -1.59274,15.888456 -1.59274,192.751453 0,176.863 0.1089,190.04257 1.59274,192.75146 2.26587,4.13661 7.60418,8.54337 11.74101,9.69217 4.93275,1.36984 263.71225,1.36984 268.645,0 1.94769,-0.54087 5.02784,-2.28864 6.84477,-3.88394 6.56797,-5.76675 6.43819,-4.95715 6.95773,-43.40412 l 0.46875,-34.6882 4.21875,-3.80383 c 2.32031,-2.0921 10.46413,-9.20983 18.09738,-15.81717 l 13.87862,-12.01335 -0.32073,52.84912 c -0.292,48.11575 -0.4739,53.31092 -2.03091,58.00536 -6.86236,20.69026 -22.0473,34.60176 -42.49993,38.93578 -9.14887,1.93871 -271.36774,1.90136 -280.30178,-0.0399 z M 247.48794,359.08338 c -2.99008,-1.45476 -5.97461,-6.57191 -7.0065,-12.01305 -0.5226,-2.75569 -0.95019,-15.49964 -0.95019,-28.31989 l 0,-23.30954 -57.00343,0 -57.00342,0 -4.63721,-2.32775 c -5.32988,-2.67545 -8.76866,-7.17101 -9.88033,-12.91665 -1.00174,-5.17755 -1.00174,-74.95865 0,-80.1362 1.11167,-5.74564 4.55045,-10.2412 9.88033,-12.91665 l 4.63721,-2.32775 57.00342,0 57.00343,0 0.0684,-23.67187 c 0.0764,-26.43375 0.62897,-32.40397 3.34272,-36.11797 2.66219,-3.64344 8.1531,-6.16075 11.90352,-5.45717 2.29439,0.43044 20.03253,15.29258 71.91236,60.25276 37.87669,32.82476 68.86671,59.9628 68.86671,60.30675 0,0.34395 -30.9931,27.48466 -68.87356,60.31269 l -68.87355,59.68731 -4.25145,-0.0635 c -2.33829,-0.0349 -5.10062,-0.4766 -6.1385,-0.98157 z"
     style="fill:#ffffff;fill-opacity:1" />
</svg>
