<svg xmlns="http://www.w3.org/2000/svg" viewBox="0 0 294 294"><defs><style>.cls-1{fill:#00c0a5;}.cls-2{fill:#fff;}</style></defs><title>Fichier 2</title><g id="Calque_2" data-name="Calque 2"><g id="Calque_1-2" data-name="Calque 1"><rect class="cls-1" width="294" height="294" rx="39" ry="39"/><g id="Personne"><circle class="cls-2" cx="80.02" cy="117.16" r="22.44"/><path class="cls-2" d="M121.37,177.27v20.68H38.66V177.27A58.43,58.43,0,0,1,121.37,177.27Z"/></g><g id="Personne-2" data-name="Personne"><circle class="cls-2" cx="217.64" cy="117.16" r="22.44"/><path class="cls-2" d="M259,177.27v20.68H176.29V177.27A58.43,58.43,0,0,1,259,177.27Z"/></g><path class="cls-2" d="M92.85,88.51C87.61,83,82.51,77.67,77.59,72.42,96.5,50,143.47,32.3,189.69,60.6l10.69-16.85c3.75,14.81,7.45,29.37,11.2,43.37-14.35,2.71-29.06,5.51-44,8.35l10.69-16.85c-14.47-9-29.52-12.4-45.63-10.61S103.56,77.07,92.85,88.51Z"/><path class="cls-2" d="M196.32,214.14c5.23,5.56,10.34,10.84,15.26,16.09-18.91,22.43-65.88,40.11-112.1,11.81L88.79,258.9c-3.75-14.81-7.45-29.37-11.2-43.37,14.35-2.71,29.06-5.51,44-8.35L110.9,224c14.47,9,29.52,12.4,45.63,10.61S185.61,225.58,196.32,214.14Z"/></g></g></svg>